<svg id="Capa_1" enable-background="new 0 0 511.983 511.983" height="512" viewBox="0 0 511.983 511.983" width="512" xmlns="http://www.w3.org/2000/svg"><g><g><g><path d="m330.694 230.215c-70.57 2.772-141.132 2.772-211.702 0-2.964-9.61-4.792-19.221-5.492-28.831-1.146-15.592.691-31.184 5.492-46.776 58.573-2.3 117.136-2.693 175.709-1.172 11.998.315 23.996.7 35.994 1.172 7.765 25.202 7.765 50.404-.001 75.607z" fill="#f1d333"/><path d="m330.694 230.215c-70.57 2.772-141.132 2.772-211.702 0-2.964-9.61-4.792-19.221-5.492-28.831 43.934 2.781 126.379 6.716 153.217-.831 21.582-6.069 27.126-28.954 27.983-47.117 11.998.315 23.996.7 35.994 1.172 7.766 25.202 7.766 50.404 0 75.607z" fill="#e7a52e"/><path d="m107.725 90.91c-22.711-2.114-45.422-2.114-68.134 0-16.531 1.539-29.491 14.945-30.329 31.527-2.359 46.647-2.359 93.294 0 139.941.838 16.582 13.798 29.988 30.33 31.527 22.711 2.114 45.423 2.114 68.134 0 16.531-1.539 29.491-14.945 30.33-31.527 2.359-46.647 2.359-93.294 0-139.941-.84-16.582-13.799-29.988-30.331-31.527z" fill="#f1d333"/><path d="m137.848 264.714c-1.863 15.487-14.376 27.721-30.126 29.19-22.71 2.116-45.42 2.116-68.131 0-16.536-1.539-29.496-14.945-30.336-31.525-2.352-46.645-2.352-93.298 0-139.943.822-16.23 13.248-29.417 29.286-31.403-.096.77-.157 1.539-.201 2.326-2.361 46.645-2.361 93.289 0 139.943.839 16.58 13.799 29.986 30.327 31.525 22.71 2.107 45.42 2.107 68.139 0 .351-.034.701-.069 1.042-.113z" fill="#e7a52e"/><path d="m410.097 90.91c-22.711-2.114-45.422-2.114-68.134 0-16.531 1.539-29.491 14.945-30.33 31.527-2.359 46.647-2.359 93.294 0 139.941.838 16.582 13.798 29.988 30.33 31.527 22.711 2.114 45.423 2.114 68.134 0 16.531-1.539 29.491-14.945 30.33-31.527 2.359-46.647 2.359-93.294 0-139.941-.839-16.582-13.799-29.988-30.33-31.527z" fill="#f1d333"/><path d="m440.219 264.714c-1.863 15.487-14.376 27.721-30.126 29.19-22.71 2.116-45.42 2.116-68.131 0-16.536-1.539-29.496-14.945-30.336-31.525-2.352-46.645-2.352-93.298 0-139.943.822-16.23 13.248-29.417 29.286-31.403-.096.77-.157 1.539-.201 2.326-2.361 46.645-2.361 93.289 0 139.943.839 16.58 13.799 29.986 30.327 31.525 22.71 2.107 45.42 2.107 68.139 0 .351-.034.701-.069 1.042-.113z" fill="#e7a52e"/></g><path d="m392.991 357.382c-70.57 2.772-141.132 2.772-211.702 0-2.964-9.611-4.792-19.221-5.492-28.832-1.146-15.592.691-31.184 5.492-46.776 58.573-2.3 117.136-2.693 175.709-1.172 11.998.315 23.996.7 35.994 1.172 7.764 25.203 7.764 50.406-.001 75.608z" fill="#b97ab7"/><path d="m392.991 357.382c-70.57 2.772-141.132 2.772-211.702 0-2.964-9.611-4.792-19.221-5.492-28.832 43.934 2.781 126.379 6.716 153.217-.831 21.582-6.069 27.126-28.954 27.983-47.117 11.998.315 23.996.7 35.994 1.172 7.765 25.203 7.765 50.406 0 75.608z" fill="#845caf"/><path d="m170.022 218.077c-22.711-2.114-45.422-2.114-68.134 0-16.531 1.539-29.491 14.945-30.33 31.527-2.359 46.647-2.359 93.294 0 139.941.838 16.582 13.798 29.988 30.33 31.527 22.711 2.114 45.423 2.114 68.134 0 16.531-1.539 29.491-14.945 30.33-31.527 2.359-46.647 2.359-93.294 0-139.941-.839-16.582-13.799-29.988-30.33-31.527z" fill="#b97ab7"/><path d="m200.144 391.881c-1.863 15.487-14.376 27.721-30.126 29.19-22.71 2.116-45.42 2.116-68.131 0-16.536-1.539-29.496-14.945-30.336-31.525-2.352-46.645-2.352-93.298 0-139.943.822-16.23 13.248-29.417 29.286-31.403-.096.77-.157 1.539-.201 2.326-2.361 46.645-2.361 93.289 0 139.943.839 16.58 13.799 29.986 30.327 31.525 22.71 2.107 45.42 2.107 68.139 0 .351-.034.701-.069 1.042-.113z" fill="#845caf"/><path d="m472.393 218.077c-22.711-2.114-45.422-2.114-68.134 0-16.531 1.539-29.491 14.945-30.33 31.527-2.359 46.647-2.359 93.294 0 139.941.838 16.582 13.798 29.988 30.33 31.527 22.711 2.114 45.422 2.114 68.134 0 16.531-1.539 29.491-14.945 30.33-31.527 2.359-46.647 2.359-93.294 0-139.941-.839-16.582-13.799-29.988-30.33-31.527z" fill="#b97ab7"/><path d="m502.516 391.881c-1.863 15.487-14.376 27.721-30.126 29.19-22.71 2.116-45.42 2.116-68.131 0-16.536-1.539-29.496-14.945-30.336-31.525-2.352-46.645-2.352-93.298 0-139.943.822-16.23 13.248-29.417 29.286-31.403-.096.77-.157 1.539-.201 2.326-2.361 46.645-2.361 93.289 0 139.943.839 16.58 13.799 29.986 30.327 31.525 22.71 2.107 45.42 2.107 68.139 0 .351-.034.701-.069 1.042-.113z" fill="#845caf"/></g><path d="m510.213 249.226c-1.018-20.139-16.979-36.74-37.125-38.615-7.81-.727-15.658-1.187-23.517-1.422.357-28.921-.192-58.19-1.659-87.122-.68-13.556-8.046-25.85-19.706-32.886-3.546-2.14-8.156-1-10.296 2.546s-1 8.157 2.546 10.297c7.382 4.455 12.045 12.229 12.475 20.799 1.452 28.636 1.995 57.601 1.64 86.221-10.362.103-20.717.609-31.007 1.567-20.146 1.875-36.107 18.476-37.125 38.615-.406 8.024-.716 16.072-.982 24.128-14.474-.421-28.99-.724-43.532-.91-1.657-3.225-2.616-6.776-2.803-10.44-2.336-46.182-2.336-93.01 0-139.182.646-12.744 10.764-23.252 23.535-24.442 17.277-1.608 34.799-1.965 52.082-1.058 4.144.207 7.666-2.961 7.883-7.097.217-4.137-2.96-7.666-7.097-7.883-18.003-.945-36.259-.574-54.259 1.102-20.145 1.877-36.104 18.479-37.125 38.619-.406 8.022-.716 16.068-.983 24.123-52.004-1.511-104.603-1.512-156.608-.001-.267-8.058-.602-16.105-1.009-24.126-1.02-20.141-16.98-36.743-37.126-38.618-23.064-2.144-46.454-2.144-69.519 0-20.145 1.876-36.105 18.479-37.125 38.619-2.362 46.675-2.362 94.013 0 140.698 1.02 20.14 16.98 36.742 37.122 38.618 7.735.724 15.614 1.204 23.51 1.44-.347 29.08.204 58.219 1.665 87.108 1.018 20.139 16.978 36.74 37.125 38.616 11.533 1.073 23.147 1.61 34.762 1.61 11.614 0 23.229-.537 34.762-1.61 20.146-1.875 36.106-18.477 37.125-38.616.405-8.016.715-16.057.981-24.105 6.003.175 12.021.337 17.991.471.057.001.114.002.171.002 4.063 0 7.403-3.248 7.495-7.332.093-4.141-3.189-7.573-7.33-7.666-5.941-.133-11.93-.295-17.905-.469.464-20.808.464-41.67 0-62.478 51.733-1.503 104.058-1.503 155.791 0-.464 20.807-.464 41.668 0 62.475-35.889 1.043-72.177 1.379-107.991.98-.028 0-.057 0-.085 0-4.103 0-7.452 3.303-7.498 7.417-.046 4.142 3.274 7.537 7.416 7.583 9.923.111 19.881.166 29.859.166 26.232 0 52.578-.401 78.72-1.161.266 8.053.576 16.097.982 24.118 1.018 20.139 16.978 36.74 37.125 38.616 11.533 1.073 23.147 1.61 34.762 1.61s23.229-.537 34.762-1.61c20.146-1.875 36.106-18.477 37.125-38.616 2.361-46.681 2.361-94.019 0-140.699zm-207.476-88.045c-.464 20.804-.464 41.662 0 62.469-34.896 1.011-70.109 1.349-104.849 1.001-6.739-7.772-16.349-13.033-27.172-14.04-7.809-.727-15.657-1.187-23.516-1.422.197-15.936.116-31.974-.243-48.009 51.731-1.503 104.051-1.502 155.78.001zm-238.669 88.045c-.649 12.824-1.101 25.699-1.394 38.594-7.52-.228-15.022-.689-22.387-1.378-12.772-1.19-22.89-11.698-23.536-24.441-2.336-46.182-2.336-93.01 0-139.182.646-12.745 10.764-23.252 23.534-24.441 22.144-2.057 44.599-2.058 66.741 0 12.771 1.188 22.89 11.696 23.535 24.442 1.452 28.637 1.995 57.603 1.64 86.224-10.362.103-20.718.609-31.008 1.567-20.146 1.875-36.107 18.476-37.125 38.615zm128.793 139.941c-.645 12.743-10.762 23.249-23.534 24.438-22.145 2.062-44.6 2.062-66.744 0-12.772-1.189-22.89-11.695-23.535-24.438-2.335-46.178-2.335-93.005 0-139.183.645-12.743 10.762-23.249 23.535-24.438 11.072-1.031 22.222-1.546 33.372-1.546s22.3.516 33.372 1.546c12.772 1.188 22.89 11.694 23.534 24.438 2.335 46.177 2.335 93.005 0 139.183zm15.963-115.813c-.266-8.056-.576-16.104-.982-24.128-.166-3.279-.734-6.461-1.645-9.504 6.111.042 12.229.07 18.361.07 26.162 0 52.469-.4 78.602-1.157.266 8.057.577 16.105.983 24.13.165 3.248.736 6.433 1.648 9.511-32.367-.224-64.78.142-96.967 1.078zm286.408 115.813c-.645 12.743-10.762 23.249-23.534 24.438-22.145 2.062-44.6 2.062-66.744 0-12.772-1.189-22.89-11.695-23.535-24.438-2.334-46.178-2.334-93.005 0-139.183.645-12.743 10.762-23.249 23.535-24.438 11.072-1.031 22.222-1.546 33.372-1.546s22.3.516 33.372 1.546c12.772 1.188 22.89 11.694 23.534 24.438 2.335 46.177 2.335 93.005 0 139.183z"/></g></svg>