<svg id="Layer_1" enable-background="new 0 0 512 512" height="512" viewBox="0 0 512 512" width="512" xmlns="http://www.w3.org/2000/svg"><g><path d="m367.84 463h-223.68c-75.475 0-136.66-61.185-136.66-136.66v-224.92c0-28.951 23.469-52.42 52.42-52.42h392.16c28.951 0 52.42 23.469 52.42 52.42v224.92c0 75.475-61.185 136.66-136.66 136.66z" fill="#e0e0e0"/><path d="m452.08 49h-30c28.951 0 52.42 23.469 52.42 52.42v224.92c0 75.475-61.185 136.66-136.66 136.66h30c75.475 0 136.66-61.185 136.66-136.66v-224.92c0-28.951-23.469-52.42-52.42-52.42z" fill="#bdbdbd"/><path d="m144.16 433c-58.907 0-106.66-47.753-106.66-106.66v-224.92c0-12.382 10.038-22.42 22.42-22.42h392.16c12.382 0 22.42 10.038 22.42 22.42v224.92c0 58.907-47.753 106.66-106.66 106.66z" fill="#ffd54f"/><path d="m452.08 79h-30c12.382 0 22.42 10.038 22.42 22.42v224.92c0 58.907-47.753 106.66-106.66 106.66h30c58.906 0 106.66-47.753 106.66-106.66v-224.92c0-12.382-10.038-22.42-22.42-22.42z" fill="#ffc328"/><path d="m337.839 183h-163.678c-4.507 0-8.161-3.654-8.161-8.161v-31.835c0-18.78 15.224-34.004 34.004-34.004h111.993c18.78 0 34.004 15.224 34.004 34.004v31.835c-.001 4.507-3.655 8.161-8.162 8.161z" fill="#bbf7ff"/><path d="m256 368c-8.284 0-15-6.716-15-15v-104c0-8.284 6.716-15 15-15 8.284 0 15 6.716 15 15v104c0 8.284-6.716 15-15 15z" fill="#546e7a"/><path d="m272 183h-32v-14c0-8.837 7.163-16 16-16 8.837 0 16 7.163 16 16z" fill="#546e7a"/><g><path d="m452.08 41.5h-324.073c-4.142 0-7.5 3.358-7.5 7.5s3.358 7.5 7.5 7.5h324.073c24.769 0 44.92 20.151 44.92 44.92v224.92c0 71.219-57.941 129.16-129.16 129.16h-223.68c-71.219 0-129.16-57.941-129.16-129.16v-224.92c0-24.769 20.151-44.92 44.92-44.92h35.994c4.142 0 7.5-3.358 7.5-7.5s-3.358-7.5-7.5-7.5h-35.994c-33.04 0-59.92 26.88-59.92 59.92v224.92c0 79.49 64.67 144.16 144.16 144.16h223.68c79.49 0 144.16-64.67 144.16-144.16v-224.92c0-33.04-26.88-59.92-59.92-59.92z"/><path d="m482 101.42c0-16.498-13.422-29.92-29.92-29.92h-392.16c-16.498 0-29.92 13.422-29.92 29.92v224.92c0 24.266 7.514 47.439 21.731 67.016 1.467 2.021 3.755 3.093 6.075 3.093 1.528 0 3.07-.465 4.401-1.432 3.352-2.434 4.095-7.124 1.661-10.476-12.344-16.997-18.868-37.122-18.868-58.201v-224.92c0-8.227 6.693-14.92 14.92-14.92h392.16c8.227 0 14.92 6.693 14.92 14.92v17.08c0 4.142 3.357 7.5 7.5 7.5s7.5-3.358 7.5-7.5z"/><path d="m84.609 405.635c-3.312-2.492-8.013-1.826-10.502 1.484-2.49 3.31-1.825 8.012 1.485 10.502 19.896 14.968 43.606 22.879 68.568 22.879h223.68c62.948 0 114.16-51.212 114.16-114.16v-175.84c0-4.142-3.357-7.5-7.5-7.5s-7.5 3.358-7.5 7.5v175.84c0 54.677-44.483 99.16-99.16 99.16h-223.68c-21.683 0-42.276-6.87-59.551-19.865z"/><path d="m353.5 174.839v-31.835c0-22.885-18.618-41.503-41.504-41.503h-111.993c-22.885 0-41.503 18.618-41.503 41.503v31.835c0 8.636 7.025 15.661 15.661 15.661h163.678c8.636 0 15.661-7.025 15.661-15.661zm-180 0v-31.835c0-14.614 11.889-26.503 26.503-26.503h111.993c14.614 0 26.504 11.889 26.504 26.503v31.835c0 .365-.297.661-.661.661h-58.339v-6.5c0-12.958-10.542-23.5-23.5-23.5-3.673 0-7.15.848-10.25 2.357l-23.201-23.201c-2.928-2.929-7.677-2.929-10.606 0s-2.929 7.678 0 10.606l23.109 23.109c-1.627 3.194-2.552 6.805-2.552 10.629v6.5h-58.339c-.365 0-.661-.296-.661-.661zm74 .661v-6.5c0-4.687 3.813-8.5 8.5-8.5s8.5 3.813 8.5 8.5v6.5z"/><path d="m256 226.5c-12.407 0-22.5 10.093-22.5 22.5v104c0 12.407 10.093 22.5 22.5 22.5 12.406 0 22.5-10.093 22.5-22.5v-104c0-12.407-10.094-22.5-22.5-22.5zm7.5 126.5c0 4.136-3.364 7.5-7.5 7.5s-7.5-3.364-7.5-7.5v-104c0-4.136 3.364-7.5 7.5-7.5s7.5 3.364 7.5 7.5z"/></g></g></svg>